<?xml version="1.0" encoding="UTF-8" standalone="no"?>
<!--
  - Copyright (c) 2022 Michael Belivanakis a.k.a. MikeNakis, michael.gr
  -
  - Licensed under a dual-license scheme; see LICENSE.md for details.
  - You may not use this file except in compliance with one of the licenses.
  -->

<!-- Created with Inkscape (http://www.inkscape.org/) -->

<svg
   width="598.64mm"
   height="598.64mm"
   inkscape:version="1.1.1 (3bf5ae0d25, 2021-09-20)"
   sodipodi:docname="mikenakis-bathyscaphe-logo.svg"
   version="1.1"
   viewBox="0 0 598.64 598.64"
   id="svg40"
   xmlns:inkscape="http://www.inkscape.org/namespaces/inkscape"
   xmlns:sodipodi="http://sodipodi.sourceforge.net/DTD/sodipodi-0.dtd"
   xmlns="http://www.w3.org/2000/svg"
   xmlns:svg="http://www.w3.org/2000/svg">
  <defs
     id="defs42" />
  <sodipodi:namedview
     bordercolor="#ffffff"
     borderopacity="1"
     fit-margin-bottom="10"
     fit-margin-left="10"
     fit-margin-right="10"
     fit-margin-top="10"
     inkscape:current-layer="g38"
     inkscape:cx="924.83453"
     inkscape:cy="1472.2702"
     inkscape:document-units="mm"
     inkscape:pagecheckerboard="1"
     inkscape:pageopacity="0"
     inkscape:pageshadow="0"
     inkscape:snap-global="false"
     inkscape:window-height="1361"
     inkscape:window-maximized="1"
     inkscape:window-width="2560"
     inkscape:window-x="2551"
     inkscape:window-y="-9"
     inkscape:zoom="0.36168632"
     lock-margins="true"
     pagecolor="#505050"
     showgrid="false"
     id="namedview2" />
  <g
     transform="translate(158.27 143.7)"
     inkscape:groupmode="layer"
     inkscape:label="Layer 1"
     id="g38">
    <circle
       cx="141.05"
       cy="155.62001"
       r="289.32001"
       fill="#d0d0d0"
       stop-color="#000000"
       stroke-miterlimit="10"
       stroke-width="3.5278"
       style="paint-order:markers stroke fill"
       id="circle4" />
    <circle
       cx="141.05"
       cy="155.62001"
       r="273.25"
       fill="none"
       stop-color="#000000"
       stroke="#4c4a2f"
       stroke-miterlimit="10"
       stroke-width="10"
       style="paint-order:markers stroke fill"
       id="circle14" />
    <path
       d="m4.6554-262.77"
       fill="#585858"
       inkscape:original-d="M 4.6554099,-262.77203"
       inkscape:path-effect="#path-effect19028"
       id="path16" />
    <path
       d="m15.279 323.73"
       inkscape:original-d="M 15.27909,323.73045"
       inkscape:path-effect="#path-effect19515"
       id="path20" />
    <path
       d="m0 0"
       inkscape:original-d="M 0,0"
       inkscape:path-effect="#path-effect851"
       id="path22" />
    <path
       id="path6-1"
       style="stroke-width:0.292509"
       d="m 136.4494,58.742962 c -13.25781,0.289652 -26.51564,0.578635 -39.773434,0.86914 -1e-5,15.775391 0,31.550781 0,47.326168 -6.559177,-0.0395 -13.118491,-0.024 -19.677739,-0.0254 -0.322819,-2.38999 -0.646465,-4.77986 -0.96875,-7.169917 -2.05666,0.0272 -4.113278,0.0575 -6.169922,0.0859 -0.405669,1.826227 -0.805568,3.653737 -1.208985,5.480457 -0.07817,-0.76041 -0.155297,-1.52093 -0.234375,-2.28124 -4.031252,-0.0335 -8.062492,-0.0686 -12.09375,-0.10157 -0.08629,2.29879 -0.170415,4.59766 -0.255859,6.89649 -1.878255,0.0358 -3.756509,0.0717 -5.634766,0.10742 -0.01167,1.02344 -0.02344,2.04687 -0.03516,3.07031 -1.610677,-0.0267 -3.221354,-0.0534 -4.832031,-0.0801 -0.05461,-0.88216 -0.110625,-1.76424 -0.164063,-2.64648 -1.391896,-0.0389 -2.783858,-0.0754 -4.175781,-0.11328 -0.06118,-3.19076 -0.122498,-6.38151 -0.183594,-9.57227 -3.211599,-0.0494 -6.423153,-0.1018 -9.634765,-0.15039 0.01436,1.0013 0.02864,2.00261 0.04297,3.00391 -3.785178,-0.0737 -7.570281,-0.15133 -11.355468,-0.22461 -0.0492,2.1745 -0.100403,4.34895 -0.150391,6.52344 -2.182291,0.017 -4.364584,0.0337 -6.546875,0.0508 -0.06483,1.0925 -0.131596,2.18489 -0.197266,3.27734 -20.3333339,-0.11914 -40.666666,-0.23828 -61,-0.35742 -8.386282,-1.55063 -16.757615,-3.19812 -25.160513,-4.63345 -2.390568,-0.14987 -4.891659,0.41889 -6.755499,1.9838 -3.657438,2.36797 -7.320541,4.72715 -10.984378,7.0852 -0.228345,21.40232 -0.452828,42.80469 -0.679688,64.20703 -4.696614,0.0339 -9.393228,0.0675 -14.089838,0.10156 0.1617,17.6504 0.32528,35.3008 0.49023,52.95117 30.099592,-0.41391 60.199228,-0.82481 90.298827,-1.23828 1.318189,-5.38986 2.635336,-10.77997 3.953125,-16.16992 2.4955009,0.91609 4.955732,2.00467 7.5253897,2.71875 19.6770843,0.084 39.3541673,0.16797 59.0312513,0.25195 -0.159494,3.79037 -0.319082,7.58073 -0.478516,11.3711 5.3992,4.02283 10.795338,8.04979 16.193359,12.07421 -0.03317,2.89909 -0.06664,5.79818 -0.09961,8.69727 2.930298,0.0745 5.860697,0.14506 8.791016,0.21875 0.01176,-2.98373 0.02484,-5.96745 0.03711,-8.95117 5.254433,-3.84718 10.50986,-7.693 15.763672,-11.54102 0.12735,-3.7408 0.24961,-7.48178 0.375,-11.22265 0.55324,0.0722 1.56535,-0.31194 1.27796,0.59607 -0.10741,12.33581 -0.21656,24.67162 -0.32288,37.00744 7.800736,0.16166 15.601576,0.31865 23.402346,0.47852 1.44389,7.36886 4.53539,14.61938 9.83976,20.03948 4.99832,4.88687 11.62643,8.06351 18.54324,9.01045 6.34923,0.63258 12.94375,-0.22476 18.68988,-3.09494 2.56737,-1.20962 4.8922,-2.84561 7.21531,-4.45725 1.41281,-0.91841 2.83607,-1.82083 4.25478,-2.73016 2.53305,-8.10621 5.06516,-16.21273 7.59375,-24.32032 -1.86649,-5.15776 -3.1616,-10.64868 -6.39016,-15.18509 -3.43025,-5.11065 -8.25632,-9.20338 -13.63914,-12.13327 1.15756,-1.67773 2.31511,-3.35547 3.47266,-5.0332 13.33529,-0.071 26.67057,-0.14193 40.00586,-0.21289 0.021,3.82682 0.0406,7.65365 0.0625,11.48047 5.22526,3.88584 10.44911,7.77358 15.67383,11.66015 0.16692,3.02343 0.33174,6.04697 0.5,9.07032 2.84635,-0.0972 5.69275,-0.19261 8.53906,-0.29102 0.0879,-2.82485 0.17438,-5.64974 0.26172,-8.47461 5.21219,-3.70059 10.42478,-7.40061 15.63672,-11.10156 0.29966,-4.21292 0.60034,-8.42578 0.90039,-12.63867 18.12435,-0.0358 36.2487,-0.072 54.37305,-0.10742 30.01157,-11.34907 60.02483,-22.69376 90.0371,-34.04102 0.35473,-21.72534 0.64513,-43.45165 0.94922,-65.17773 -3.46538,-3.16282 -6.92851,-6.32812 -10.39453,-9.49024 -10.44914,1.6432 -20.84276,3.60449 -31.34219,4.80441 -16.60701,0.009 -33.20917,-0.50008 -49.81601,-0.51339 0.28354,-1.23335 1.09823,-2.2783 1.31487,-3.54073 0.46044,-1.61458 0.57806,-3.33926 1.18801,-4.89649 1.12113,-1.06152 2.81823,-1.52193 3.51274,-3.01396 0.77211,-1.36529 0.14431,-3.03379 -0.85937,-4.09374 -0.7878,-0.965304 -1.76766,-1.781957 -2.40039,-2.867187 -0.0163,-2.02182 -1.34438,-4.12179 -3.41211,-4.53711 -1.94733,0.79254 -2.74273,2.98942 -3.15039,4.8457 -2.81116,-0.3151 -5.78472,-0.48974 -8.48298,0.52908 -1.64308,0.72484 -2.62574,2.673007 -2.13631,4.419897 0.37656,2.36394 2.22722,4.28683 4.41421,5.1311 0.38501,0.52688 0.0312,1.25581 0.12359,1.86548 -0.0886,1.88632 -0.32607,3.76177 -0.44,5.64624 -12.37184,-0.0222 -24.74334,-0.13662 -37.11523,-0.13867 -0.90808,-1.39462 -1.89936,-3.03522 -3.67786,-3.36422 -0.7523,-0.22492 -1.53214,-0.33972 -2.30847,-0.44633 -0.16175,-2.19404 -0.32648,-4.38786 -0.48633,-6.58203 -3.96745,-0.003 -7.93489,-0.009 -11.90234,-0.0117 -0.0315,1.39648 -0.0625,2.79297 -0.0937,4.18945 -0.60538,-2.35419 -1.21152,-4.70818 -1.81641,-7.0625 -1.97719,-0.0779 -3.95442,-0.15512 -5.93164,-0.23242 -0.30863,3.27805 -0.61859,6.55598 -0.92773,9.83398 -1.95772,0.0148 -4.19908,0.5461 -5.25,2.36915 -0.27137,0.39832 -0.43549,0.90135 -0.79688,1.21875 -0.69019,0.30331 -0.72064,-0.37378 -0.86063,-0.89457 -0.2643,-0.92063 -0.53144,-1.84045 -0.79366,-2.76168 -12.32161,0.0417 -24.64323,0.0805 -36.96485,0.12109 0.0201,-8.66635 0.003,-17.335277 -0.0332,-25.999997 -0.39074,-2.88331 -3.53082,-4.72735 -6.24251,-4.39663 -2.16606,0.0419 -4.31045,1.06059 -5.61687,2.80679 0.96298,2.00027 1.92851,3.99931 2.89063,6 0.54593,-0.19869 1.08456,-0.41847 1.58789,-0.71094 -0.0971,4.54506 -0.20128,9.0911 -0.30859,13.636717 -3.4349,0.0508 -6.8698,0.10135 -10.30469,0.15234 0,3.44466 0,6.88932 0,10.33398 -2.1888,-0.0417 -4.37761,-0.0833 -6.56641,-0.125 -0.0136,-3.49544 -0.0276,-6.99088 -0.041,-10.48632 -4.21354,0.0281 -8.4271,0.0519 -12.64063,0.0801 0.002,3.54231 0.007,7.08463 0.01,10.62695 -0.6985,0.0934 -1.33644,0.12456 -1.07467,-0.76875 0.004,-2.3375 0.0101,-4.675 0.0122,-7.0125 -3.71746,0.0314 -7.4349,0.0667 -11.15235,0.0996 -0.003,-15.664067 -0.007,-31.328127 -0.01,-46.992187 -0.18034,0.0039 -0.36068,0.0078 -0.54102,0.01172 z m 3.56055,165.890618 c -3.84866,1.88969 -7.35344,4.42979 -10.50781,7.32422 -1.14018,-0.30798 -2.28211,-0.6077 -3.42578,-0.90234 -0.008,-3.47591 -0.0156,-6.95182 -0.0234,-10.42774 3.7806,-0.0371 7.5612,-0.0742 11.34179,-0.11132 0.87175,1.37239 1.74349,2.74479 2.61524,4.11718 z" />
    <path
       d="m 133.37536,211.3361 4.54414,7.15674 c -5.83912,2.57364 -8.93821,5.01525 -12.99958,8.74757 l -6.13349,-1.59672 -0.0344,-14.1562 14.62304,-0.15148 z m 43.30565,26.53098 c -3.79337,-8.9978 -10.12952,-14.28367 -18.056,-18.35712 l 5.42867,-7.8722 43.23266,-0.22822 0.0638,12.53442 15.62702,11.62944 0.43713,7.98467 4.48462,-0.15164 0.23027,-7.54497 15.68355,-11.13206 0.97034,-13.60809 55.95084,-0.10757 c 29.44979,-11.12031 58.89956,-22.23125 88.33472,-33.39281 0.35452,-20.92841 0.61991,-41.85799 0.90894,-62.78699 -2.97804,-2.71961 -5.95607,-5.43921 -8.93293,-8.15983 -10.04211,1.6081 -20.03889,3.43609 -30.13425,4.67107 -16.86868,0.0653 -35.59653,-0.58367 -52.46551,-0.51831 l 0.009,-2.83274 1.23704,-2.74905 1.24773,-5.626276 c 0.77957,-1.849825 2.97086,-1.808318 3.86653,-3.533768 0.23292,-0.894375 -1.44233,-2.220896 -1.87484,-2.855085 -0.75116,-0.776639 -0.89013,-1.197963 -1.69184,-1.921016 0.0222,-0.561471 -0.0144,-2.699326 -1.1436,-3.173141 -0.85687,0.452687 -1.73705,4.770654 -1.73705,4.770654 0,0 -3.02162,-0.442934 -4.51167,-0.402691 -1.55189,0.01 -4.0121,-0.119335 -5.29505,0.964908 -1.19448,1.323105 0.45813,4.399516 2.17194,4.918718 1.27086,0.630123 2.3021,1.306786 2.0846,2.907457 0.0522,3.24831 -0.55756,5.78265 -0.54263,9.03096 -13.65607,0.0137 -26.45402,-0.17985 -40.11097,-0.1453 -1.27984,-0.94013 -1.45547,-2.97547 -3.16223,-3.40487 -1.35888,-0.44456 -2.47304,-0.3815 -3.84856,-0.69143 l -0.46997,-6.295706 -7.86331,-0.01226 -0.14658,6.683416 -3.06064,-0.18421 -2.42835,-9.434794 -2.35472,-0.09214 -0.91026,9.619524 c -1.81054,0.35429 -3.40752,-0.21002 -4.98414,0.96079 -2.25773,3.10883 -0.7812,2.73005 -5.17747,2.82553 l -1.07225,-3.71113 -34.60785,0.10824 -1.60505,2.73079 -1.26144,-2.85622 -0.0155,-27.61913 c -0.61792,-3.552881 -5.78274,-2.992122 -7.22314,-1.538216 l 1.34288,2.783707 c 0,0 1.40103,-0.823429 2.08646,-0.273689 0.76336,0.529967 0.517,0.871126 0.63793,1.855886 l -0.37693,16.227514 -10.25866,0.151639 v 10.404189 l -10.79264,-0.20219 -0.0417,-10.432672 -8.41287,0.05055 0.009,10.584312 -5.31164,0.15163 0.014,-7.8593 -11.15068,0.0987 -0.01,-46.959865 -36.080711,0.786987 V 101.4112 c 0.282757,0.6179 -0.593735,0.6757 -0.990084,0.57645 -6.69845,-0.001 -13.396608,-0.003 -20.095058,-0.004 l -0.158022,2.5887 -2.067739,-0.1052 -1.296331,-9.630983 -2.620946,0.03875 -2.202743,10.013923 -2.184648,-0.15294 -0.674704,-6.652814 -8.142086,-0.07149 -0.250194,6.842434 -5.5847,0.10723 -0.03574,3.14072 -8.916459,-0.14297 -0.166251,-2.67005 -4.261486,-0.11337 -0.183392,-9.548036 -5.407301,-0.08725 0.129999,9.260316 -3.876126,0.0349 -0.223889,-6.357468 -7.420734,-0.15164 -0.15164,6.469418 -6.624855,0.0506 -0.202185,3.30717 -63.174153,-0.37157 -24.724939,-4.62474 c -2.211805,-0.03 -3.576253,-0.0535 -5.311707,1.3051 l -10.574049,6.80184 -0.687781,65.14435 -14.050776,0.10105 0.45137,48.70153 86.540136,-1.18251 4.132576,-16.89845 9.0181993,3.42347 61.2348867,0.26001 -0.52675,12.44952 16.163221,12.05107 -0.09181,7.68872 4.541644,0.10867 0.03574,-7.85781 15.794794,-11.56328 0.407705,-12.23769 5.462822,-0.004 -0.328554,37.65406 23.03342,0.46162 c 1.14256,6.86871 3.4425,13.20957 7.88103,18.78918 4.32064,5.40643 12.07748,9.36109 18.89557,10.27342 9.19717,0.73588 16.21738,-1.13443 23.29765,-6.42156 l 4.91476,-3.15427 7.1579,-22.918 z"
       fill="#ceb21e"
       sodipodi:nodetypes="ccccccccccccccccccccccccccccccccccccccccccccccccccccccccccccccccccccccccccccccccccccccccccccccccccccccccccccccccccccccccccc"
       id="path6"
       style="stroke-width:0.292509" />
    <path
       d="m 119.72862,212.75671 13.30429,-0.14041 3.17782,5.30889 c -0.02,0.02 -0.60827,0.24689 -1.6977,0.82212 -1.08944,0.57522 -2.68009,1.49881 -4.70514,2.91193 -1.81776,1.26852 -3.07158,2.31029 -3.87112,3.03487 -0.79947,0.72463 -1.14447,1.13209 -1.14447,1.13209 l -5.21349,-1.1867 m -26.520144,8.16178 v 17.58171 h 3.062622 c 1.68443,0 6.731412,0.0767 11.215892,0.17031 l 8.15295,0.17034 1.09796,3.25786 c 3.55349,10.54394 6.29383,15.39823 12.5901,20.24942 5.39535,4.15646 12.72388,5.74161 19.5297,6.00495 4.77424,0.18478 9.55999,-1.33916 13.98532,-3.141 2.23898,-0.9117 4.23307,-2.31648 6.17355,-3.806 l 3.16305,1.34147 10.01035,-31.35926 -2.94275,-1.36992 c -0.98826,-2.58701 -0.68455,-4.20679 -0.65762,-8.46227 l 0.12937,-20.43957 h 27.1669 l 0.25872,11.59643 15.52426,11.77641 0.71714,8.32187 h 7.1742 l 0.014,-3.94562 0.014,-3.94563 15.70778,-11.38394 0.14267,-1.29362 c 0.33256,-4.08841 0.50502,-7.29801 0.7594,-11.51351 l 55.15964,-0.007 89.76695,-33.93292 c 0.41247,-22.81541 0.61049,-40.20254 0.94093,-64.76805 l -3.90284,-3.54 V 94.836532 l -18.35975,0.0513 -0.13908,11.735508 -3.49289,0.68988 v -7.2507 l -63.64702,-0.336122 c 0,-0.184871 0.41685,-0.486866 0.92635,-0.671096 1.18681,-0.429167 3.21341,-2.362137 3.21341,-3.064941 0,-0.628267 -1.52467,-2.628245 -3.05056,-4.001791 l -1.0652,-0.958774 -0.17597,-3.698426 c -0.0967,-2.034117 -0.2731,-3.887586 -0.39184,-4.118869 -0.35688,-0.694999 -1.22364,-0.758292 -1.92014,-0.140218 -0.68885,0.611285 -1.08065,1.90145 -1.80504,5.944258 -0.38553,2.151859 -0.51841,2.509839 -0.8742,2.35495 -0.23074,-0.10044 -1.8768,-0.236457 -3.65797,-0.30237 -3.86558,-0.14296 -4.77369,0.125459 -5.83127,1.723677 -1.0305,1.557179 -1.12181,3.079423 -0.2718,4.529916 0.37624,0.641965 0.88455,1.279464 1.12966,1.416553 0.24515,0.137156 0.37627,0.31871 0.29136,0.403617 l -21.31617,9.845776 -14.81117,0.15146 -0.6149,-1.23966 c -0.83014,-1.67349 -1.89714,-2.33395 -4.12539,-2.55362 l -1.79355,-0.17674 v -6.660214 h -4.13965 V 96.95746 h 4.39846 V 94.887631 H 225.7904 v 1.034924 c 0,0.947265 0.058,1.034936 0.68635,1.034936 h 0.68637 l -0.16774,2.910715 c -0.0922,1.600964 -0.16889,3.451994 -0.16889,4.113454 v 1.20274 l -1.8119,0.18196 c -2.24053,0.22501 -3.27821,0.8633 -4.10163,2.52289 -0.58882,1.1867 -0.64832,1.22861 -1.74645,1.22861 h -1.13684 v -3.88096 h -37.48619 l -0.0991,1.0996 c -0.0545,0.6048 -0.11937,-5.36671 -0.14425,-13.270023 -0.0451,-14.34352 -0.0462,-14.371159 -0.62734,-15.523151 -1.18361,-2.345001 -4.10759,-2.984788 -7.61254,-1.665525 -0.95601,0.359849 -1.78095,0.696989 -1.83313,0.749216 -0.0747,0.0747 2.14401,4.728475 2.38546,5.003538 0.0329,0.03745 0.84947,-0.305668 1.35128,-0.515348 0.50184,-0.209724 0.85909,0.121417 0.94831,0.210636 l -0.0905,15.372527 h -10.60805 v 10.60806 h -8.26892 l -0.0699,-5.36871 -0.0699,-5.3687 h -10.86676 l -0.0699,5.3687 -0.0699,5.36871 h -2.83554 v -5.43338 h 0.7762 c 0.74745,0 0.77619,-0.0431 0.77619,-1.16427 V 99.544521 H 130.83786 V 52.714156 H 92.028318 V 100.06192 H 71.364319 l -0.107781,0.71152 -0.567424,-5.698716 1.356657,-2.32e-4 -0.06904,-2.127736 -20.310221,-0.13532 v 2.334608 h 4.139654 v 1.552426 h -4.139875 v 6.9858 h -5.69208 v 3.10486 h -5.925022 l -0.07764,-1.48775 -0.07764,-1.48775 -4.786517,-0.14881 v -4.647441 c 0,-3.958564 -0.05753,-4.647548 -0.388107,-4.647548 -0.280292,0 -0.388095,-0.287478 -0.388095,-1.034924 V 92.299971 H 15.155263 l 0.0796,1.099622 0.0796,1.099611 2.134503,0.07507 2.134502,0.07518 v 2.566444 h -3.880954 v 6.468292 h -0.78216 c 0.01126,-1.6453 0.006,-2.98966 0.006,-4.657165 h -83.828996 v 2.199175 c 0,2.40746 -0.111275,2.53759 -1.664861,1.94689 L -71.2312,102.92074 V 91.006135 h -13.712246 v -32.08221 h -2.069827 v 46.567245 c -2.806351,2.00228 -5.351347,3.5096 -8.27157,5.30723 -0.01578,22.63853 -0.185093,41.84098 -0.352198,64.29488 h -14.178789 l 0.60954,51.22751 88.787424,-1.04724 3.753261,-16.58715 7.9184546,2.9597 60.1713644,0.44643 -0.530569,11.83302 16.018441,12.09923 0.02056,8.21411 7.761896,0.25224 v -8.5316 l 15.187061,-11.39278 0.267696,-11.90629 3.162632,0.013 M 385.9268,96.953931 l -0.11301,11.417969 -4.04413,-3.72651 -10.05681,1.69137 V 96.957635 Z M 12.867054,103.6853 H 8.977367 v 3.10486 H -1.3718795 v -5.43339 H 12.858873 M 121.14284,238.03701 c 2.94808,-7.77539 9.91918,-15.09419 17.92221,-17.35285 11.95994,-3.37527 21.68222,-0.11372 28.93579,6.616 6.89968,6.40207 10.46069,15.61159 8.33315,26.97895 -1.50555,8.04449 -7.0329,16.06819 -14.19095,20.03604 -7.19177,3.98598 -16.83214,4.04015 -24.62632,1.4212 -5.98749,-2.0119 -10.51951,-5.91961 -14.41981,-12.29382 -4.4166,-7.2172 -4.96374,-17.46341 -1.95264,-25.40574 z m -24.010529,10.01515 22.209569,-21.16814 3.4206,0.97695 -7.37894,20.45726 z m 130.082479,-5.56328 -2.90054,0.15301 -0.33468,-5.45693 3.21687,-0.0671 z m -131.309661,-29.79006 21.644641,0.01 -0.12607,12.44528 -21.861345,20.8052 m -23.250435,-3.65726 -3.312494,0.0145 v -5.64919 h 3.363552 z m 104.05985,-7.98434 c -0.97809,-2.66845 -2.97839,-4.73077 -4.61748,-6.57531 -1.6701,-1.90664 -3.61226,-3.5687 -5.45859,-4.92682 -1.95532,-1.5335 -4.27786,-2.67516 -6.21954,-3.74043 1.36832,-1.96458 2.91207,-4.30593 4.1532,-6.21115 h 11.88586 c 0.0858,7.15122 0.17116,14.30247 0.25655,21.45371 z m 51.3314,0.68404 -3.97557,0.11392 -2.82901,-1.99392 10.38252,-0.33536 z M 73.229805,234.3387 h -4.892429 l -3.031564,-2.59787 c 0.105194,-0.10525 11.259907,-0.22394 11.391468,-0.12831 z m 144.865955,-3.686 -6.36486,-4.46415 29.0853,-0.46582 -7.39229,4.74637 z m -154.614144,-0.77588 -7.868669,-5.23825 c 0.160074,-0.13361 29.431081,0.28817 29.56817,0.42608 l -6.284051,4.63124 z m -170.574756,-5.88747 -0.34325,-46.57122 h 12.927299 l 75.587055,30.22376 c 0.133662,0.15128 -3.003582,15.27109 -3.211869,15.47893 z m 350.181,-0.3889 -34.71786,-0.009 -0.28873,-11.11528 3.12575,-1.55243 c 5.68854,-2.82526 10.87427,-4.48183 14.75258,-4.71278 2.76975,-0.16495 5.01348,0.17395 8.2531,1.24652 2.47977,0.82099 8.9223,3.87299 9.4061,4.45585 l -0.53146,11.68697 z m -155.242567,-0.90429 -34.623448,-0.26563 0.394991,-10.86472 c 0.454142,-0.57919 5.960556,-2.99755 8.650602,-3.87381 8.247911,-2.68662 16.064875,-1.77708 23.559458,2.74134 l 2.199399,1.32601 z m 72.076907,-7.21024 -1.72301,2.42715 -19.73754,-0.63679 -3.15748,-5.19536 c -0.11704,-0.26649 5.97433,-2.07458 9.21826,-2.73625 3.98156,-0.81209 6.73075,-0.80884 9.96595,0.0118 2.279,0.57812 7.40713,2.60205 7.40713,2.92343 0,0.0745 -0.8879,1.51716 -1.97309,3.20601 z m -33.73612,-5.2084 H 89.672781 l -2.292486,-1.57719 0.351535,-89.80335 5.184418,0.17392 c 2.576498,0.0865 4.8879,0.23093 5.137093,0.30069 0.249215,0.0698 0.696601,0.69273 0.994173,1.38449 0.774909,1.80129 1.291186,2.1816 2.961456,2.1816 1.70456,0 2.56833,-0.5548 3.46449,-2.22504 l 0.62878,-1.1719 4.30184,-0.15454 c 2.36601,-0.0856 4.96363,-0.0868 5.77267,-0.003 1.42584,0.14716 1.4788,0.18042 1.73043,1.08609 0.14273,0.51385 0.26018,1.07435 0.26096,1.24552 0.002,0.36699 1.58327,0.84938 2.7911,0.85159 1.95849,0.003 2.66992,-0.66351 3.67465,-3.4447 0.19935,-0.55176 0.40523,-0.7093 0.84527,-0.64684 l 0.58173,0.0826 m 2.32875,0 7.89137,-0.14284 v 4.15325 h 4.65717 v -9.04645 l -6.27427,-0.0692 -6.27427,-0.0693 -0.0775,-1.1971 c -0.0726,-1.12203 -0.0136,-1.24773 0.9428,-2.00515 l 1.02035,-0.80814 h 47.70487 l -2.00869,1.34347 c -5.27153,3.52585 -10.25191,10.13365 -12.63875,16.76801 -2.27335,6.31889 -4.00483,16.74439 -4.79562,26.83299 -0.71029,12.67122 -0.54694,22.31546 2.30453,33.65745 1.87196,8.2658 7.75851,15.50611 12.02045,20.03913 1.2e-4,1.3e-4 -2.4e-4,4.8e-4 -2.4e-4,4.8e-4 l 2.51282,2.78137 -11.53871,-0.0433 -2.32853,-1.14127 c -2.87014,-1.40671 -5.66743,-2.32012 -8.76178,-2.86085 -3.90704,-0.68278 -8.8909,0.0793 -16.18095,2.47402 l -3.20878,1.05413 h -5.14206 m 78.17517,0.5169 h -27.58038 l -2.86539,-2.91071 c -6.55205,-6.66027 -10.79975,-11.7837 -13.02541,-20.42902 -2.68613,-10.85486 -2.77003,-22.22656 -2.09482,-33.04519 0.99499,-10.08246 1.64309,-17.787 4.65318,-26.29707 2.3258,-6.14743 6.78014,-12.2506 12.39587,-16.00527 l 1.87591,-1.20849 c 0.93258,-0.59469 2.5115,1.59643 3.19186,1.87249 l 1.54524,0.99876 h 26.31008 v 94.83925 z m 94.70327,-0.51795 -55.18373,-0.25299 -2.5773,-0.98336 -0.12823,-97.73914 c 0.1785,-0.0684 4.54141,-0.0939 9.69542,-0.0565 l 9.37094,0.068 -11.00418,5.08248 0.67014,2.01902 c 5.54083,-2.52483 11.40749,-5.1778 15.94094,-7.23089 h 23.38478 v 2.80834 c 0,2.61044 0.044,2.85577 0.62479,3.4824 0.75047,0.80985 1.64728,1.07052 2.88418,0.83849 1.55784,-0.29227 1.92433,-0.88955 1.92433,-3.13614 v -1.95784 l 2.32853,1.90809 v -3.42591 h 2.06983 z M 51.809559,209.957 -5.4996234,209.50065 V 109.11259 H 55.045198 c -0.04355,33.06284 -0.08711,66.12458 -0.130655,99.18742 z M -8.0219558,209.48476 -52.329436,191.86039 v -82.74776 h 44.5020586 z m 311.1919158,0.004 v -97.87401 l 46.57311,0.34335 -0.13112,80.02809 z m -62.54842,-1.8283 c -0.10669,-0.0155 -1.2296,-0.4866 -2.49525,-1.04686 -4.85672,-2.14987 -9.60808,-3.05974 -13.32198,-2.55118 -2.76755,0.37892 -5.51541,1.11263 -8.80821,2.35196 -1.4841,0.55856 -2.79419,1.01558 -2.91138,1.01558 -0.27739,-32.93902 -0.1319,-58.04405 -0.0823,-93.53138 l 1.88155,-0.16805 c 2.08718,-0.18642 2.95615,-0.62046 3.55315,-1.77486 l 0.40014,-0.77377 h 21.97851 z M 85.124689,207.40692 c -0.10673,-0.0129 -1.069893,-0.41323 -2.140361,-0.88963 -4.191174,-1.8653 -9.64379,-2.92399 -13.294345,-2.58126 -3.109274,0.29185 -6.884315,1.15464 -9.708243,2.21874 -1.484103,0.55927 -2.735816,1.01686 -2.781476,1.01686 -0.125945,-34.53434 -0.08302,-60.85437 -0.08302,-98.05974 h 28.201699 v 4.39846 h -4.139654 v 9.05563 h 4.139654 z M 352.06585,191.06366 c 0.0437,-26.40295 0.0874,-52.80591 0.13111,-79.20997 l 28.85509,-4.86921 8.66073,7.94886 -1.03493,62.32521 z m -406.794349,-0.21757 -34.993147,-13.87797 -0.110512,-66.95043 c 2.347544,-1.52998 4.647549,-3.13525 7.015877,-4.63317 1.009132,-0.63435 3.331601,-1.17986 5.048976,-1.18428 7.807235,1.43667 15.631496,2.85522 23.362669,4.66303 z m -37.24517,-15.04334 -1.207558,-0.64212 0.35777,-63.20674 0.792995,-0.52378 z M 103.94241,118.94497 c -0.77848,1.43612 -1.02553,1.69294 -1.69117,1.75839 -0.72355,0.0711 -0.83052,-0.0344 -1.48886,-1.46874 -0.57072,-1.24342 -0.873016,-1.5993 -1.547009,-1.82129 -0.460741,-0.15175 -3.259298,-0.37942 -6.218992,-0.50591 -2.959692,-0.12648 -5.448194,-0.29695 -5.530005,-0.37876 -0.08238,-0.0818 -0.08043,-0.32845 0.0039,-0.54804 0.136194,-0.35493 2.294919,-0.39926 19.436836,-0.39926 16.96811,0 19.28426,0.0465 19.28426,0.3881 0,0.30484 -0.35804,0.38809 -1.67006,0.38809 h -1.67006 l -0.1576,0.97025 c -0.0867,0.53364 -0.29984,1.37775 -0.4737,1.8758 -0.27143,0.77761 -0.44554,0.91652 -1.23226,0.98319 -0.86276,0.0731 -0.93382,0.0189 -1.21755,-0.92813 -0.6025,-2.0109 -0.53956,-1.99553 -8.15516,-1.99553 h -6.76082 l -0.91164,1.68177 z m -18.688748,1.30734 -2.01196,0.0176 v -4.68845 h 2.089948 z m 48.354208,-3.89468 c -2.75118,0 -5.07651,-0.0745 -5.1676,-0.16546 -0.4852,-0.4852 0.57135,-0.61073 5.13974,-0.61073 4.29863,0 5.02996,0.0564 5.02996,0.38809 0,0.3316 -0.72829,0.3881 -5.0021,0.3881 z m 160.7593,-8.55714 c 0,7.27944 -0.0486,8.29844 -0.39623,8.29844 -0.21789,0 -0.45246,-0.14674 -0.52134,-0.3261 -0.0686,-0.17934 -0.0943,-3.87443 -0.0565,-8.21131 0.0632,-7.27248 0.1037,-7.891927 0.52134,-7.972301 0.42359,-0.08148 0.45278,0.447351 0.45278,8.211321 z m -187.40327,5.7111 c -10.577875,0 -19.309692,-0.0776 -19.40477,-0.17249 l -0.02952,-4.1544 5.253928,-0.0715 1.747335,1.94456 1.747336,1.94457 14.959321,-0.0688 c 11.83169,-0.0544 14.95931,-0.001 14.95931,0.25465 -3e-5,0.25587 -4.01903,0.32342 -19.2323,0.32342 z m 103.70805,-1.94048 -12.67744,0.0631 -12.67745,0.063 -1.22893,-0.80518 c -1.21446,-0.79571 -1.22894,-0.82161 -1.22894,-2.19951 v -1.39433 l 32.98877,0.13311 0.0783,1.3584 c 0.043,0.74708 0.19664,1.35829 0.34141,1.35829 0.14471,0 0.22597,0.26196 0.18053,0.58215 -0.0684,0.48193 -0.31381,0.62137 -1.42517,0.80996 z m -85.05064,-1.30887 c -0.50369,0.35277 -2.3094,0.4012 -14.55357,0.39235 l -13.97869,-0.01 -2.716693,-3.10938 V 90.225522 h 34.152923 v 17.852568 h -1.16426 c -1.15431,0 -1.16427,0.008 -1.16427,0.8909 0,0.62732 -0.17012,1.01006 -0.57502,1.29373 z m 217.78403,-0.50225 -15.39446,-0.14118 v -7.49923 l 15.3949,0.13709 z m 7.80541,0.18423 -5.60601,-0.055 V 102.1272 H 363.716 l -2.8e-4,5.56273 z m -39.11152,-0.44305 -12.40964,0.0137 -0.0142,-0.72471 c 0.77479,0.14812 0.9277,-0.17677 1.89028,-4.01628 l 0.66623,-2.65743 9.86734,0.14018 c 0,2.51969 -4e-5,4.66088 -4e-5,7.24453 z m 13.85597,0.12935 h -11.65701 v -7.51315 l 11.51329,0.1393 z m -94.06315,-0.51743 c -7.60614,0 -8.92629,-0.0553 -8.92629,-0.37344 0,-0.20538 0.25876,-0.55467 0.57504,-0.77619 0.50108,-0.35091 2.17397,-0.40276 13.008,-0.40276 10.83437,0 12.50719,0.0517 13.00801,0.40276 0.31627,0.22152 0.57503,0.57081 0.57503,0.77619 0,0.30711 -0.62468,0.37344 -3.51711,0.37344 z m 59.37845,-4.4e-4 -17.7985,-0.40069 17.79908,-8.11867 z m -151.61633,-1.81069 h -8.79693 v -5.43338 h 8.79693 v 2.71669 z m 13.97205,0 h -6.46829 v -8.538229 h 6.46829 v 4.269119 z m 16.62318,-0.0413 -3.94563,0.0413 v -8.279418 h 6.2096 v 8.238078 z m 7.95605,-0.21737 h -1.29362 V 80.769879 c 0,-0.644085 0.14999,-2.369447 -2.05247,-2.108535 -1.0187,0.12065 -1.29837,0.06841 -1.42694,-0.266506 -0.088,-0.229116 -0.0537,-0.522719 0.076,-0.652456 0.42321,-0.423197 2.32731,-0.533598 3.17152,-0.183888 0.86502,0.378265 1.4749,0.854765 1.67708,1.812186 z m -227.424507,-0.25871 -2.393314,-0.0244 c -5.873281,-0.55465 -8.973047,-1.42861 -15.070977,-2.72996 -0.05215,-0.89301 -0.10431,-1.78603 -0.156459,-2.67899 h 17.620396 c -1.9e-5,1.81113 1.6e-5,3.62225 4.7e-5,5.43338 z m 18.369965,-2e-5 h -16.300359 v -5.43338 h 16.300359 z m 11.125239,0 h -9.055633 v -5.43338 h 9.055633 z m 16.3003582,0 H -17.654247 v -5.43338 h 14.2307522 z m 27.8136478,0 c -11.671384,0 -13.324194,-0.0482 -13.324194,-0.38811 0,-0.33999 1.653031,-0.38808 13.324194,-0.38808 11.671385,0 13.324195,0.0481 13.324195,0.38808 0,0.34002 -1.653031,0.38811 -13.324195,0.38811 z m 36.998631,0 c -11.671384,0 -13.324194,-0.0482 -13.324194,-0.38811 0,-0.33999 1.653031,-0.38808 13.324194,-0.38808 11.671385,0 13.324195,0.0481 13.324195,0.38808 0,0.34002 -1.653032,0.38811 -13.324195,0.38811 z m 30.659357,-1e-5 H 76.782585 v -3.10475 h -1.569562 c -1.559612,0 -1.569009,-0.004 -1.48775,-0.71152 l 0.08184,-0.71152 18.240615,-0.13598 v 2.33195 z m 140.162749,-1.55243 h -3.0394 v -6.727105 h 0.90061 c 1.02818,0 0.91637,-0.266893 1.6527,3.945625 z m 3.09888,-0.0253 -1.09331,0.0222 -1.34571,-8.367926 7.18976,0.04389 0.0119,1.599942 h -4.69155 z m 8.86813,0.0253 h -6.46829 v -4.39847 h 6.46829 v 2.19918 z M -83.8414,103.441 c -0.470614,0.27358 -0.909587,0.49743 -0.975501,0.49743 -0.132788,-3.77891 -0.033,-6.66409 0.02004,-10.737411 l 11.51329,-0.1393 c -0.06965,1.370008 0.27462,9.723611 -0.452782,9.446561 -0.249027,-0.10547 -1.743135,-0.24835 -3.320325,-0.31733 -3.063614,-0.13411 -5.02587,0.22742 -6.784925,1.24994 z m 107.323226,0.23865 h -5.69208 v -4.398467 h 5.69208 v 2.199177 z m 3.622143,-1.2e-4 h -1.552426 v -6.445631 c -1.428493,-0.05793 -2.405585,-0.09751 -3.751603,-0.152125 l -0.157631,-2.457989 h 5.461682 z m 5.965484,1.2e-4 h -3.636846 v -7.268165 l 3.492903,0.153009 0.07197,3.557576 z m 27.152524,0 h -6.209592 v -4.657167 h 6.209592 z m 2.27417,-0.17871 0.05441,-6.807096 h -4.398466 v -1.552425 l 6.83433,-0.01216 -1.400873,8.564211 -1.053597,-0.0496 z m 6.597387,0.17871 h -3.371512 l 1.225457,-6.921131 1.812519,-0.06467 z m 2.253903,0 c -0.142308,0 -0.258734,-0.34929 -0.258734,-0.77619 0,-0.42692 0.116426,-0.7762 0.258734,-0.7762 0.142307,0 0.258723,0.34928 0.258723,0.7762 0,0.4269 -0.116427,0.77619 -0.258723,0.77619 z M 296.95882,100.0574 c -0.14229,0 -0.25873,-0.123307 -0.25873,-0.274005 0,-0.150688 0.11644,-0.201986 0.25873,-0.114094 0.1423,0.08789 0.25873,0.211206 0.25873,0.274002 0,0.0628 -0.11643,0.114097 -0.25873,0.114097 z m 2.32853,-0.988793 c 0,-0.619931 0.0186,-0.627018 0.50002,-0.191295 0.27507,0.248872 0.43714,0.616205 0.36042,0.8163 -0.28619,0.745758 -0.86044,0.328628 -0.86044,-0.625005 z m -2.19918,-1.727878 -3.2342,0.04809 c -1.77873,0.02642 -3.37527,-0.01106 -3.54774,-0.08303 -0.1725,-0.07208 -0.56044,-0.530414 -0.86211,-1.018507 -0.53948,-0.87285 -0.54073,-0.903418 -0.0745,-1.85756 l 0.47399,-0.970072 6.33684,-0.145271 0.52421,0.848837 c 0.36602,0.592734 0.50289,1.200195 0.45381,2.013112 z m 4.4962,-0.01161 c -0.13824,0.138228 -1.12877,-0.86553 -1.77586,-1.799518 -0.19718,-0.284615 0.15221,-0.02664 0.77645,0.573266 0.62421,0.599898 1.07392,1.151771 0.9994,1.226286 z m 1.8087,-0.859306 c -0.76766,0.590313 -1.37101,0.628643 -1.15797,0.07352 0.0862,-0.225091 0.15705,-0.883496 0.15705,-1.463096 0,-1.053023 4.4e-4,-1.053476 0.54142,-0.56389 1.01946,0.9226 1.13906,1.430924 0.45953,1.953412 z m -3.3295,-4.174369 c -0.32714,0 -0.32714,-0.528711 0,-1.034925 0.1954,-0.302414 0.25145,-0.231028 0.25477,0.32342 0.002,0.391346 -0.11247,0.711516 -0.25477,0.711516 z M 128.52506,87.896939 H 94.372136 V 65.646463 h 34.152924 v 11.125238 z m 0,-24.321188 H 94.372136 v -8.53812 h 34.152924 v 4.269115 z"
       fill="#746b39"
       stroke-width="0.258734"
       sodipodi:nodetypes="cccsssccccsccsaaaccccscccccsccccccccccccccccccccsscccsssccssssssssssscccsscccccccccccccccsscssscccccssssssccccccccccccccccccssccccccccccccsssscccccccccccccscccccccccccccccccccsscccccccccccccccccscccccccccccccccccccccccccccccccccccccccccccccccccccccccccsscsccccssccsssssssccccscccscsccsssscsscccssccccsscsccccccssscccccccccccsccsscccccccccccccssccccccscccssssssscccccccccccccsscccccssccccccccccsccccccscscccccsccssccscsssccssccccccscccccccccccccssccccccccscscccccccccssccccccsccccscccssscsssssccccccccccsscccsccccscscccccccscccccsccccccscccscccscscccscccsccsscsccccsccccscccccccccsscccccccccccccccccccccccccccccccccccccccccccccccsccssccssccscccssccccccccccccccccccccccccscccccccccc"
       id="path10" />
    <path
       d="m0 0"
       inkscape:original-d="M 0,0"
       inkscape:path-effect="#path-effect1616"
       id="path28" />
    <path
       d="m-75.713 344.92"
       inkscape:original-d="M -75.713055,344.91502"
       inkscape:path-effect="#path-effect9144"
       id="path30" />
    <path
       d="m0 0"
       inkscape:original-d="M 0,0"
       inkscape:path-effect="#path-effect9925"
       id="path32" />
    <path
       d="m0 0"
       inkscape:original-d="M 0,0"
       inkscape:path-effect="#path-effect10139"
       id="path34" />
    <path
       d="m0 0"
       inkscape:original-d="M 0,0"
       inkscape:path-effect="#path-effect10147"
       id="path36" />
  </g>
</svg>
