<?xml version="1.0" encoding="UTF-8" standalone="no"?>
<!-- Created with Inkscape (http://www.inkscape.org/) -->

<svg
   width="598.63794mm"
   height="598.63794mm"
   viewBox="0 0 598.63794 598.63795"
   version="1.1"
   id="svg5"
   sodipodi:docname="dona.svg"
   inkscape:version="1.1.1 (3bf5ae0d25, 2021-09-20)"
   xmlns:inkscape="http://www.inkscape.org/namespaces/inkscape"
   xmlns:sodipodi="http://sodipodi.sourceforge.net/DTD/sodipodi-0.dtd"
   xmlns="http://www.w3.org/2000/svg"
   xmlns:svg="http://www.w3.org/2000/svg">
  <sodipodi:namedview
     id="namedview7"
     pagecolor="#505050"
     bordercolor="#ffffff"
     borderopacity="1"
     inkscape:pageshadow="0"
     inkscape:pageopacity="0"
     inkscape:pagecheckerboard="1"
     inkscape:document-units="mm"
     showgrid="false"
     fit-margin-top="10"
     lock-margins="true"
     fit-margin-left="10"
     fit-margin-right="10"
     fit-margin-bottom="10"
     inkscape:zoom="0.72337261"
     inkscape:cx="1108.0043"
     inkscape:cy="1290.4829"
     inkscape:window-width="2560"
     inkscape:window-height="1361"
     inkscape:window-x="-9"
     inkscape:window-y="-9"
     inkscape:window-maximized="1"
     inkscape:current-layer="layer1"
     inkscape:snap-global="false" />
  <defs
     id="defs2">
    <inkscape:path-effect
       effect="fill_between_many"
       method="originald"
       linkedpaths="#path836-2-1,0,1"
       id="path-effect9715" />
    <inkscape:path-effect
       effect="fill_between_many"
       method="originald"
       linkedpaths="#path836-2-1,0,1"
       id="path-effect9526" />
    <inkscape:path-effect
       effect="fill_between_many"
       method="originald"
       linkedpaths="#path836-1,0,1"
       id="path-effect19028" />
    <inkscape:path-effect
       effect="fill_between_many"
       method="originald"
       linkedpaths="#path836-5,0,1"
       id="path-effect19188" />
    <inkscape:path-effect
       effect="fill_between_many"
       method="originald"
       linkedpaths="#path836-8,0,1"
       id="path-effect19313" />
    <inkscape:path-effect
       effect="fill_between_many"
       method="originald"
       linkedpaths="#path836-8,0,1"
       id="path-effect19515" />
    <inkscape:path-effect
       effect="fill_between_many"
       method="originald"
       linkedpaths="#path836-4,0,1"
       id="path-effect851" />
    <inkscape:path-effect
       effect="fill_between_many"
       method="originald"
       linkedpaths="#path836-6,0,1"
       id="path-effect1227" />
    <inkscape:path-effect
       effect="fill_between_many"
       method="originald"
       linkedpaths="#path836-3,0,1"
       id="path-effect1352" />
    <inkscape:path-effect
       effect="fill_between_many"
       method="originald"
       linkedpaths="#path1614,0,1"
       id="path-effect1616" />
    <inkscape:path-effect
       effect="fill_between_many"
       method="originald"
       linkedpaths="#path836-2-1,0,1"
       id="path-effect9144" />
    <inkscape:path-effect
       effect="fill_between_many"
       method="originald"
       linkedpaths="#path836-2-6,0,1"
       id="path-effect9921" />
    <inkscape:path-effect
       effect="fill_between_many"
       method="originald"
       linkedpaths="#path9923,0,1|"
       id="path-effect9925" />
    <inkscape:path-effect
       effect="fill_between_many"
       method="originald"
       linkedpaths="#path836-2-6,0,1"
       id="path-effect9967" />
    <inkscape:path-effect
       effect="fill_between_many"
       method="originald"
       linkedpaths="#path836-2-6,0,1"
       id="path-effect9971" />
    <inkscape:path-effect
       effect="fill_between_many"
       method="originald"
       linkedpaths="#path836-2-6,0,1"
       id="path-effect9975" />
    <inkscape:path-effect
       effect="fill_between_many"
       method="originald"
       linkedpaths="#path836-2-6,0,1"
       id="path-effect10055" />
    <inkscape:path-effect
       effect="fill_between_many"
       method="originald"
       linkedpaths="#path10057,0,1|"
       id="path-effect10139" />
    <inkscape:path-effect
       effect="fill_between_many"
       method="originald"
       linkedpaths="#path836-2-6,0,1"
       id="path-effect10143" />
    <inkscape:path-effect
       effect="fill_between_many"
       method="originald"
       linkedpaths="#path10145,0,1|"
       id="path-effect10147" />
    <inkscape:path-effect
       effect="fill_between_many"
       method="originald"
       linkedpaths="#path836-2-6,0,1"
       id="path-effect10151" />
  </defs>
  <g
     inkscape:label="Layer 1"
     inkscape:groupmode="layer"
     id="layer1"
     transform="translate(158.27345,143.70053)">
    <circle
       style="fill:#d0d0d0;stroke-width:3.52777;stroke-miterlimit:10;paint-order:markers stroke fill;stop-color:#000000"
       id="path3185"
       cx="141.04552"
       cy="155.61844"
       r="289.31897" />
    <path
       id="path9467"
       style="fill:#767676;fill-opacity:1;stroke:none;stroke-width:0.884511;stroke-opacity:1"
       transform="matrix(0.26458333,0,0,0.26458333,-158.27345,-143.70053)"
       d="m 965.16016,793.50544 v 2 0.002 157.91211 c 0.96666,2.11242 -2.02982,2.30999 -3.38477,1.9707 -22.9001,-0.004 -45.79912,-0.01 -68.69922,-0.0137 -2.01974,2.56449 -4.13692,5.04751 -6.2832,7.50586 -4.13682,-5.68055 -5.86472,-12.8672 -5.33203,-19.81836 -0.47431,-4.02225 -0.91731,-8.07835 -0.42578,-12.12304 -13.23569,-0.0767 -26.47128,-0.14751 -39.70704,-0.21289 v 13.14648 h -14.15039 v 23.88086 h -19.45898 v 10.61523 h -31.94922 c -0.18988,-3.44976 -0.3731,-6.90014 -0.56836,-10.34961 -5.54853,-0.17574 -11.09778,-0.33904 -16.64648,-0.50976 -0.25739,-11.32687 0.63396,-22.69492 -0.62696,-33.98633 -1.28167,-1.84089 -1.78638,-5.15134 -4.73828,-4.8418 -11.84083,0.3617 -23.74985,0.0511 -35.61718,0.1543 -0.0412,5.60035 -0.0931,11.20024 -0.0742,16.80078 h -13.27344 v 22.11719 h -22.99414 v 10.61523 c -72.74048,-0.0457 -145.4865,0.23178 -218.22266,-0.40625 -14.70525,-1.45341 -28.92321,-5.71929 -43.41797,-8.39062 -13.96696,-2.93053 -27.84475,-6.9449 -42.14648,-7.76563 -7.56154,-0.10242 -14.99084,2.5819 -20.92383,7.22657 -10.44957,6.68715 -20.57333,13.89932 -31.31055,20.14257 -0.99207,4.47912 -0.0465,9.07579 -0.44531,13.60937 -0.18092,69.6994 -0.73583,139.3978 -1.21484,209.0957 h -48.38086 c 0.48622,54.3493 0.72466,108.7024 1.88867,163.0429 97.69564,-1.2243 195.39824,-1.9582 293.0918,-3.3515 4.0677,-18.0006 7.22789,-36.2455 12.40039,-53.9688 2.30259,-3.9871 7.71557,-2.9572 11.23633,-1.4316 7.66446,2.4911 14.83408,6.4844 22.70507,8.2969 6.86613,0.9287 13.82036,0.1648 20.72461,0.5234 63.10402,0.5159 126.2073,1.0522 189.3125,1.4023 -0.49185,14.5369 -0.94121,29.0768 -1.80078,43.5977 18.18772,13.7344 36.37764,27.4662 54.56641,41.1992 0.0181,8.0291 0.0283,16.0569 0.0527,24.086 4.85387,0.2691 9.70275,0.598 14.54883,0.9824 v -25.2754 c 17.4282,-13.0961 34.8611,-26.1881 52.28711,-39.2871 1.18252,-13.6793 0.76672,-27.4809 2.06641,-41.1309 1.17942,-2.9716 4.73991,-2.7916 7.33398,-2.4355 h 13.11328 v 129.1601 c 25.01302,0.1969 50.021,0.7334 75.0293,1.2325 7.8806,22.6179 14.3613,46.5425 29.5352,65.6171 14.7707,18.4827 37.1416,30.1018 60.4511,33.2207 16.3525,2.9336 33.4965,2.6391 49.3379,-2.7226 12.3238,-3.8325 24.3834,-9.1226 34.4571,-17.3301 1.6636,-0.9669 3.403,-3.1375 5.0273,-3.2695 2.0242,1.8725 4.0502,3.7443 6.0723,5.6191 10.1174,-31.9335 20.2262,-63.8699 30.3457,-95.8027 -7.0028,-5.907 -5.608,-15.5978 -6.2272,-24.0684 -1.1405,-15.0328 -0.7491,-30.6983 -0.5714,-45.9765 0.062,-14.7813 -0.2927,-29.5624 -0.1517,-44.3438 h 101.7647 c 0.3175,14.2028 0.6327,28.4047 0.9512,42.6074 17.5637,13.3346 35.1274,26.6678 52.6914,40.002 1.5598,8.4899 1.5558,17.1568 2.1856,25.7422 h 13.2578 c 0.03,-8.0217 0.064,-16.0448 0.096,-24.0664 17.9874,-13.0312 35.9744,-26.064 53.9629,-39.0938 1.3331,-15.4866 2.1974,-31.0079 3.1445,-46.5215 l 193.1836,-0.022 c 100.6756,-38.0174 201.3644,-76.0025 301.9863,-114.1621 1.212,-71.5475 2.1193,-143.0995 3.1074,-214.65038 -10.1807,-9.2975 -20.3621,-18.59477 -30.539,-27.89642 -34.3314,5.49755 -68.507,11.7471 -103.0235,15.96875 -57.6693,0.22337 -115.3385,0.44843 -173.0078,0.67188 -0.6713,-13.82884 -1.4085,-27.65578 -1.8594,-41.49414 2.6651,-6.32395 11.7449,-4.96025 14.8067,-10.85938 0.7963,-3.0576 -2.6093,-4.65996 -4.0879,-6.82812 -2.568,-2.65508 -5.3647,-5.07296 -8.1055,-7.54493 0.076,-1.9195 -0.4158,-3.85179 -2.4433,-4.49414 -2.9294,1.54765 -2.1265,5.75186 -4.961,7.51172 -4.5585,2.66211 -10.3298,0.19641 -15.4238,0.33399 -5.3055,0.034 -11.6389,-1.26334 -16.0254,2.44336 -4.0836,4.52326 -1.8551,12.7187 4.0039,14.49414 4.3447,2.15418 9.2143,5.93379 8.4707,11.40625 0.1784,11.10508 0.049,22.21256 0.1,33.31836 -46.6855,0.0469 -93.3711,-0.12611 -140.0566,-0.008 -4.3754,-3.21399 -4.4871,-10.66139 -10.3223,-12.1289 -4.6456,-1.51975 -9.6765,-0.81545 -14.3789,-1.875 -2.3847,-4.97019 -0.4878,-10.63564 -1.2324,-15.89258 0.5784,-2.45 0.2931,-6.41687 -3.0625,-6.36328 h -11.0137 v -12.38606 c -12.9922,-0.0151 -25.9845,0.0102 -38.9765,0.0801 -0.6483,11.50715 -1.2636,23.02543 -1.211,34.55469 -6.1897,1.21122 -13.3601,-0.22924 -18.75,3.77343 -3.1641,3.41775 -4.614,9.54412 -10.0547,9.90821 -4.3959,0.63276 -8.8451,0.25195 -13.2656,0.24023 V 973.0621 h -117.0469 c -2.2111,5.59737 -4.419,11.19515 -6.6289,16.79297 -3.3729,-10.51707 -6.0195,-21.50903 -5.1172,-32.63086 -0.4864,-27.02653 0.4168,-54.08688 -1.2168,-81.08594 -2.2853,-5.75254 -9.5741,-6.77314 -14.8437,-5.08594 -3.6102,-0.53179 -4.6517,4.42627 -2.1484,6.40625 2.1171,2.10996 5.4809,0.1226 7.8242,2.00196 3.8193,1.81178 2.6315,6.43419 3.0449,9.80078 0.8321,18.19331 0.1649,36.41051 0.4395,54.61328 h -36.2813 v 36.25976 h -40.1797 c -0.1636,-12.23425 -0.3189,-24.46898 -0.4883,-36.70312 h -25.3047 c -0.1693,12.23414 -0.3226,24.46887 -0.4863,36.70312 h -21.6152 c 0.015,-8.84122 0.045,-17.68334 -0.125,-26.52343 -12.6354,-0.002 -25.2709,-0.004 -37.9063,-0.008 V 793.50544 Z M 1101.082,1329.2164 c 0,8.1098 8.3264,13.9218 12.4844,20.8847 -5.5143,2.6726 -11.0343,5.3565 -16.3086,8.4844 -9.51,5.2546 -17.2933,12.5018 -25.3262,19.7734 -6.6707,-1.474 -13.3418,-2.944 -20.0117,-4.4218 0.1874,-14.7343 0.3725,-29.4689 0.5528,-44.2032 15.8193,-0.1705 31.6395,-0.3341 47.4589,-0.5019 0.3839,0 0.7665,-0.012 1.1504,-0.016 z m 104.8807,1.0313 h 43.7008 c 0.1985,16.9174 0.3994,33.8349 0.6039,50.7523 -0.113,10.38 0.8373,20.7994 -0.2718,31.1424 -3.754,-5.9142 -5.8797,-12.7556 -10.3398,-18.2386 -6.4842,-7.557 -13.0555,-15.1596 -20.8201,-21.4515 -8.7429,-7.3649 -18.6739,-13.0833 -28.8401,-18.2282 z"
       sodipodi:nodetypes="ccccccccccccccccccccccccccccccccccccccccccccccccccccccccccccccccccccccccccccccccccccccccccccccccccccccccccccccccccccccccscccccccscccccccc" />
    <path
       style="fill:#767676;fill-opacity:1;stroke:none;stroke-width:0.234027;stroke-opacity:1"
       d="m 140.78711,108.15039 c -0.74616,-0.0422 -0.85982,1.25615 -0.0703,1.3125 0.60019,0.20305 1.38452,-0.47598 0.87109,-1.0293 -0.22732,-0.16273 -0.51638,-0.31115 -0.80078,-0.2832 z"
       id="path9465"
       sodipodi:nodetypes="sccss" />
    <path
       style="fill:#767676;fill-opacity:1;stroke:none;stroke-width:0.234027;stroke-opacity:1"
       d="m 60.037109,102.07812 c -0.670014,-0.0305 -0.603453,0.81847 -0.689453,1.28516 0.570785,-0.10082 1.109607,-0.27003 1.539063,-0.67773 -0.278159,-0.17852 -0.471273,-0.6995 -0.84961,-0.60743 z"
       id="path9463"
       sodipodi:nodetypes="cccc" />
    <path
       id="path836"
       style="fill:#000000;stroke-width:0.234027"
       d="m 120.71149,209.27357 12.03362,-0.127 2.87441,4.80195 c -0.0181,0.0181 -0.55019,0.22331 -1.53561,0.74362 -0.98542,0.5203 -2.42421,1.35566 -4.25587,2.63389 -1.64416,1.14739 -2.77833,2.08967 -3.50146,2.74511 -0.72314,0.65544 -1.03523,1.02403 -1.03523,1.02403 l -4.71573,-1.07337 m -23.98795,7.38248 v 15.90329 h 2.770166 c 1.523594,0 6.088704,0.0694 10.144674,0.15405 l 7.37451,0.15408 0.99313,2.94679 c 3.21418,9.5372 5.69292,13.92819 11.38801,18.31554 4.88021,3.75959 11.50928,5.19336 17.6651,5.43163 4.31838,0.16714 8.64721,-1.21128 12.64971,-2.84108 2.02519,-0.82465 3.82887,-2.09533 5.58406,-3.44255 l 2.541,2.35637 9.146,-28.8682 c 0.34182,-0.83232 -3.09517,1.09024 -3.02797,-9.53346 l 0.11702,-18.4882 h 12.28645 12.28624 l 0.11701,5.24462 0.11701,5.24458 7.02083,5.32594 7.02084,5.32595 0.15502,1.13085 c 0.0852,0.62195 0.16432,1.827 0.17552,2.67786 0.0113,0.85088 0.0875,2.03564 0.16932,2.63281 l 0.14881,1.0858 h 3.24459 3.24458 l 0.0127,-3.56892 0.0127,-3.56893 7.10396,-5.14861 7.10393,-5.14861 0.12905,-1.17014 c 0.071,-0.64358 0.25455,-3.25007 0.40798,-5.79219 l 0.27891,-4.62204 24.94673,-0.003 24.94673,-0.003 40.56563,-15.30813 c 22.31111,-8.41948 40.59445,-15.34284 40.62975,-15.38534 0.37308,-20.63681 0.5522,-36.36396 0.85109,-58.58417 l -1.76509,-1.60097 -1.76506,-1.60096 v -12.96735 -1.07781 h -0.93401 -0.934 l -0.12118,12.24255 -1.82897,-1.68534 -1.82896,-1.68535 -3.90473,0.64164 c -2.14757,0.3529 -4.19431,0.69713 -4.54828,0.76493 l -0.64358,0.1233 v -4.24178 -4.24177 h 5.73369 7.14909 v -0.93613 -0.93611 h -8.0808 -6.66542 l -0.0629,5.30746 -0.0629,5.30747 -0.58507,0.1546 c -0.32179,0.085 -1.03265,0.2254 -1.57969,0.312 l -0.99462,0.15741 v -3.27918 -3.27917 h -28.78541 c -23.4527,0 -28.78542,-0.0563 -28.78542,-0.30403 0,-0.16722 0.37705,-0.44038 0.8379,-0.60702 1.07351,-0.38819 2.90655,-2.13656 2.90655,-2.77229 0,-0.56828 -1.37906,-2.37733 -2.75933,-3.6197 l -0.96349,-0.867227 -0.15917,-3.345269 c -0.0875,-1.8399 -0.24702,-3.516415 -0.35443,-3.725589 -0.3228,-0.628635 -1.10677,-0.685886 -1.73676,-0.126826 -0.62308,0.552923 -0.97747,1.719945 -1.63266,5.37672 -0.34872,1.946388 -0.46891,2.270164 -0.79073,2.130101 -0.20871,-0.09085 -1.69761,-0.21388 -3.30868,-0.2735 -3.4965,-0.129307 -4.31787,0.113483 -5.27452,1.55911 -0.93211,1.40853 -1.01472,2.78539 -0.24585,4.09739 0.34031,0.58067 0.80009,1.15727 1.02179,1.28134 0.22174,0.12406 0.34034,0.28828 0.26354,0.36508 -0.0767,0.0767 -4.44634,2.11191 -9.71021,4.52261 l -9.57068,4.3831 -6.69865,0.0685 -6.69867,0.0685 -0.55619,-1.1213 c -0.75088,-1.51374 -1.71601,-2.11114 -3.73151,-2.30975 l -1.62228,-0.15986 v -3.01214 -3.01213 h -1.87222 -1.87222 v -0.70209 -0.70209 h 1.98924 1.98923 v -0.93612 -0.93611 h -9.36111 -9.36111 v 0.93611 c 0,0.85682 0.0525,0.93612 0.62082,0.93612 h 0.62083 l -0.15172,2.63283 c -0.0834,1.44806 -0.15277,3.12238 -0.15277,3.72071 v 1.08789 l -1.63894,0.16459 c -2.02657,0.20352 -2.96518,0.78087 -3.71002,2.28205 -0.5326,1.07341 -0.58642,1.11131 -1.57969,1.11131 h -1.02829 v -1.75523 -1.75521 h -16.95356 -16.95356 l -0.0896,0.99461 c -0.0493,0.54705 -0.10798,-4.85426 -0.13048,-12.0029 -0.0408,-12.974466 -0.0418,-12.999313 -0.56744,-14.040709 -1.07061,-2.121143 -3.71543,-2.699791 -6.88571,-1.5065 -0.86473,0.325486 -1.61093,0.630441 -1.65813,0.677681 -0.0676,0.06757 1.93929,4.277012 2.15766,4.525785 0.0298,0.03387 0.42546,-0.0936 0.87936,-0.283256 0.45392,-0.189695 0.89136,-0.278795 0.97206,-0.198095 0.0806,0.08071 0.14674,3.288561 0.14674,7.128568 v 6.981856 h -4.79758 -4.79757 v 4.79759 4.7976 h -3.73969 -3.7397 l -0.0632,-4.8561 -0.0632,-4.85611 h -4.91459 -4.91458 l -0.0632,4.85611 -0.0632,4.8561 h -1.2824 -1.2824 v -2.45731 -2.45731 h 0.70209 c 0.67608,0 0.70208,-0.039 0.70208,-1.05312 v -1.05314 h -5.73368 -5.73369 V 85.689743 64.510229 H 113.20381 95.652094 v 21.413542 21.413579 h -9.345568 -9.345567 l -0.09749,0.64358 c -0.05366,0.35396 -0.114158,-0.0936 -0.134588,-0.99463 -0.02041,-0.90101 -0.103478,-2.19109 -0.184678,-2.86685 -0.145936,-1.21496 -0.140531,-1.22866 0.483547,-1.22866 0.597804,0 0.627354,-0.0526 0.559154,-0.99462 l -0.072,-0.99462 -9.185585,-0.0612 -9.185594,-0.0612 v 1.05585 1.05584 h 1.872225 1.872214 v 0.7021 0.7021 h -1.872216 -1.872376 v 3.15939 3.1594 h -2.574308 -2.5743 v 1.40417 1.40418 h -2.679645 -2.679637 l -0.07023,-1.34568 -0.07023,-1.34566 -2.16476,-0.0673 -2.164752,-0.0673 v -4.20374 c 0,-3.58064 -0.05204,-4.20375 -0.351046,-4.20375 -0.253528,0 -0.351038,-0.26003 -0.351038,-0.93611 v -0.93612 h -8.672489 -8.672493 l 0.072,0.99463 0.072,0.99462 1.930729,0.0679 1.930737,0.068 v 1.16068 1.16068 h -1.755214 -1.755205 v 2.92536 2.92537 h -3.042369 -3.04236 v 1.40418 1.40417 h -4.680561 -4.680549 v -2.45731 -2.4573 h 6.435762 6.435767 v 0.8191 c 0,0.7996 0.02229,0.8191 0.936109,0.8191 h 0.936117 v -1.87223 -1.87223 h -37.912494 -37.912509 v 1.98924 c 0,2.17761 -0.100649,2.29531 -1.505948,1.76102 l -0.600302,-0.22825 v -5.38845 -5.388461 h -6.201738 -6.201737 V 84.636618 70.126896 h -0.936108 -0.936117 v 21.061033 21.060191 l -0.8952,0.64849 c -0.492356,0.35667 -2.175764,1.43679 -3.740894,2.40027 l -2.8457,1.75178 c -0.01427,20.47697 -0.167418,37.8465 -0.318567,58.15597 h -6.412644 -6.412644 l 0.13755,17.7276 c 0.07565,9.75018 0.199677,20.17573 0.275677,23.16786 l 0.13811,5.44026 11.148617,-0.14114 c 6.131752,-0.0776 24.173759,-0.26299 40.093348,-0.41192 15.91957,-0.14891 29.0001836,-0.32629 29.0681136,-0.39419 0.067896,-0.0679 0.8276574,-3.43645 1.6883781,-7.48564 0.8607114,-4.04922 1.6286881,-7.43225 1.7065281,-7.51775 0.077882,-0.0855 1.72128177,0.48179 3.65200773,1.26076 l 3.51041487,1.41629 22.5836816,0.18615 c 12.421031,0.10236 24.666851,0.19306 27.212899,0.20206 l 4.62923,0.0156 -0.129422,3.80295 c -0.07118,2.09162 -0.179181,4.49981 -0.239951,5.35156 l -0.110538,1.54858 7.244306,5.47226 7.244306,5.47222 0.0093,3.53711 0.0093,3.53711 2.749823,0.15941 c 1.512404,0.0877 3.092094,0.21901 3.510416,0.29191 l 0.760594,0.13246 v -3.85851 -3.85851 l 6.868582,-5.15259 6.868582,-5.15262 0.152252,-1.11079 c 0.08377,-0.61093 0.15295,-2.17554 0.153649,-3.47692 7.78e-4,-1.30136 0.069,-3.23495 0.151703,-4.29684 l 0.150296,-1.93074 2.494935,0.0575 m 25.173127,22.94631 c 2.6666,-7.03301 8.97207,-13.6534 16.2109,-15.69628 10.81813,-3.05302 19.61231,-0.10286 26.17263,5.98427 6.24091,5.79076 9.46187,14.12113 7.53746,24.40334 -1.36183,7.2764 -6.36139,14.53429 -12.83618,18.12282 -6.50513,3.60536 -15.22515,3.6544 -22.27522,1.28547 -5.41583,-1.8198 -9.51506,-5.3544 -13.04341,-11.12005 -3.99492,-6.52806 -4.48982,-15.79613 -1.76618,-22.97957 z m -21.71833,9.05892 20.08892,-19.14675 3.09402,0.88367 -6.67443,18.50446 z m 117.73352,-7.23576 -0.0678,2.2037 -1.3118,0.0692 -1.31179,0.0692 -0.14884,-1.23932 c -0.0819,-0.68163 -0.15088,-1.79221 -0.15088,-2.46796 l -0.003,-1.22865 1.22864,0.004 c 1.8108,0.005 1.8426,0.0521 1.7645,2.59028 z m -118.839974,-24.7415 19.577604,0.009 -0.11403,11.25711 -3.15933,3.04237 v 2.6e-4 L 98.429545,239.79382 M 77.865444,233.3615 c 0,1.35151 -0.07898,2.43734 -0.175523,2.41304 -0.09654,-0.0243 -0.78107,-0.0823 -1.521179,-0.1287 l -1.345656,-0.0845 v -2.3286 -2.3286 h 1.521179 1.521179 v 2.4573 z m 94.077696,-4.58266 c -0.69522,-1.62307 -1.33804,-2.65638 -2.00773,-3.5107 -0.66968,-0.85432 -1.36623,-1.52964 -2.1689,-2.43675 -0.7346,-0.83017 -1.46001,-1.57113 -2.25624,-2.29112 -0.79624,-0.71999 -1.66328,-1.41901 -2.68115,-2.1653 -1.32118,-0.96869 -2.28427,-1.57041 -3.13874,-2.05202 -0.85447,-0.4816 -1.60033,-0.84308 -2.48705,-1.33127 0.0301,-0.0785 0.27516,-0.41848 0.63583,-0.92771 0.36068,-0.50924 0.83697,-1.18773 1.32955,-1.9432 l 0.89561,-1.3736 0.89561,-1.37359 h 2.68771 2.68771 2.6877 2.6877 l 0.1162,9.70263 z m 48.23645,-0.33041 c -1.33314,0.98139 -1.52216,1.05049 -2.77557,1.01379 -2.58592,-0.0756 -3.14786,-0.20961 -4.17794,-0.99616 l -1.00713,-0.769 1.92003,-0.14947 c 1.05603,-0.0823 3.16904,-0.15087 4.69561,-0.15087 l 2.77557,-0.003 -1.43057,1.05313 z M 78.644878,228.79789 H 76.43223 74.219591 l -1.333008,-0.97856 c -0.733147,-0.5382 -1.287243,-1.0243 -1.231253,-1.0803 0.09515,-0.0952 10.007352,-0.49352 10.126169,-0.40702 0.03004,0.0219 -0.663421,0.58566 -1.54101,1.25282 z m 132.616572,-3.13775 -1.52118,0.12703 -2.91091,-2.18057 -2.91091,-2.18058 12.50605,-0.17501 c 6.87834,-0.0961 12.76933,-0.14891 13.09111,-0.11701 0.49067,0.0486 0.13928,0.38401 -2.17779,2.07856 l -2.76288,2.02057 -5.89614,0.15 c -3.24291,0.0825 -6.5807,0.20711 -7.41735,0.27701 z M 69.886682,224.72468 c -0.776454,0.11403 -1.086688,-0.0592 -4.047247,-2.2599 -1.763491,-1.31087 -3.175427,-2.4092 -3.137567,-2.4408 0.144786,-0.12085 26.620692,0.26066 26.745435,0.3854 0.129705,0.12972 -3.769447,3.16384 -4.678179,3.64035 -0.273289,0.14329 -3.290898,0.309 -7.254726,0.3984 -3.732739,0.0842 -7.165213,0.20865 -7.627716,0.27655 z m -111.854247,-5.64767 c -18.850861,0.19766 -36.126361,0.35956 -38.390019,0.35977 h -4.115746 l -0.15524,-11.62285 c -0.08534,-6.39257 -0.155237,-15.87069 -0.155237,-21.0625 v -9.43965 h 5.846387 5.846387 l 34.113825,13.58853 c 18.762604,7.4737 34.177728,13.66073 34.255738,13.74913 0.1209037,0.13683 -2.7167665,13.81278 -2.9051595,14.00117 -0.036654,0.0367 -15.4900755,0.22836 -34.3409355,0.42602 z m 274.244925,0.008 c -0.0387,0.0338 -7.03293,0.10974 -15.54277,0.16854 -11.88898,0.0822 -15.56224,0.0413 -15.86022,-0.17658 -0.34326,-0.25099 -0.38056,-0.84444 -0.32446,-5.16881 l 0.0633,-4.88523 2.82726,-1.40417 c 5.14541,-2.55547 9.83603,-4.05386 13.34443,-4.2628 2.50528,-0.1492 4.53483,0.15734 7.46512,1.1275 2.24297,0.7426 8.07042,3.5032 8.50798,4.03041 0.19342,0.2331 0.17405,1.64573 -0.0743,5.41251 -0.18486,2.80339 -0.36781,5.12473 -0.40641,5.15863 z m -140.417396,-0.81795 -7.757855,-0.0553 c -4.266827,-0.0305 -11.313196,-0.0846 -15.658612,-0.12016 l -7.900748,-0.0648 0.151163,-4.73595 c 0.09242,-2.89561 0.252467,-4.86515 0.411857,-5.06846 0.410777,-0.52389 5.185704,-2.73424 7.618906,-3.52681 7.460375,-2.43009 14.530671,-1.60741 21.309997,2.47958 l 1.989432,1.19935 0.07589,2.07943 c 0.04172,1.14369 0.0048,3.3695 -0.08208,4.94627 z m 65.194516,-6.52179 -1.55847,2.19539 -17.85319,-0.57599 -2.85605,-4.69927 c -0.10587,-0.24105 5.40392,-1.87648 8.33813,-2.47499 3.60141,-0.73455 6.08814,-0.73161 9.01438,0.0107 2.0614,0.52292 6.69994,2.35364 6.69994,2.64431 0,0.0674 -0.80313,1.37234 -1.78474,2.89986 z M 126.53903,207.0342 H 93.512407 l -1.036775,-0.71332 -1.036792,-0.71333 0.385294,-80.26641 0.385286,-0.96293 4.236762,0.15732 c 2.330218,0.0865 4.421208,0.20888 4.646638,0.27198 0.22542,0.0631 0.63009,0.62659 0.89925,1.25226 0.70092,1.62933 1.16789,1.97334 2.67873,1.97334 1.54175,0 2.32314,-0.50183 3.13369,-2.0126 l 0.56874,-1.06004 3.89106,-0.13979 c 2.14008,-0.0774 4.48974,-0.0785 5.22146,-0.003 1.28967,0.13311 1.3376,0.16319 1.56515,0.98239 0.12911,0.46479 0.23534,0.97177 0.23605,1.12661 0.002,0.33195 1.4321,0.76828 2.52463,0.77028 1.77153,0.003 2.41497,-0.60016 3.32381,-3.1158 0.18031,-0.49908 0.36654,-0.64158 0.76456,-0.58508 l 0.52619,0.0747 m 2.10642,0 3.56893,-0.0646 3.56893,-0.0646 v 1.87833 1.87836 h 2.10625 2.10625 v -4.09136 -4.09135 l -5.67518,-0.0626 -5.67518,-0.0627 -0.0701,-1.08275 c -0.0657,-1.0149 -0.0123,-1.12855 0.85278,-1.81372 l 0.92293,-0.73098 h 21.57499 21.575 l -1.81689,1.21521 c -4.76817,3.18918 -9.27332,9.16603 -11.43224,15.1668 -3.85349,10.71096 -5.98571,34.46676 -4.02251,44.81633 1.39452,7.35155 3.73733,15.50979 5.40495,18.82122 0.85637,1.70054 3.52836,5.09859 7.23704,9.20361 l -2.2e-4,4.4e-4 2.2729,2.5158 -5.21849,-0.0196 -5.21849,-0.0196 -2.10625,-1.03234 c -2.59609,-1.27242 -5.12632,-2.09859 -7.9252,-2.58771 -3.53403,-0.61759 -8.04204,0.0717 -14.63554,2.23775 l -2.90241,0.95348 h -4.65109 m 70.7114,0.46755 h -12.4737 -12.47373 l -2.59177,-2.63282 c -4.30074,-4.36884 -7.16937,-7.84384 -8.26216,-10.00863 -1.64896,-3.26656 -4.13609,-12.05529 -5.29712,-18.71828 -0.74517,-4.27645 -0.93534,-9.2351 -0.57445,-14.97777 0.55071,-8.76318 1.69829,-17.18576 3.17269,-23.28578 1.27819,-5.28824 2.5181,-8.29362 4.87579,-11.8184 1.53489,-2.2947 5.68509,-6.44115 7.82989,-7.82284 l 1.69679,-1.09309 c 0.84354,-0.53791 2.2717,1.44402 2.88713,1.69374 l 1.39773,0.9034 h 11.89912 11.89914 v 85.78396 l -1.99267,0.98827 z m 85.66105,-0.4685 -25.21649,-0.009 c -27.04681,-0.0101 -25.70999,0.0448 -27.03021,-1.10933 l -0.11599,-88.40732 c 0.16146,-0.0619 4.10783,-0.0849 8.76971,-0.0511 l 8.47616,0.0615 -4.92978,2.22328 c -2.71138,1.2228 -4.97201,2.29104 -5.02371,2.37394 -0.0517,0.0829 0.0636,0.52767 0.25612,0.98846 l 0.35004,0.83779 1.81315,-0.82639 c 0.99724,-0.45451 4.24147,-1.92612 7.20941,-3.27024 l 5.39626,-2.44386 h 10.57614 10.57614 v 2.54015 c 0,2.36122 0.0398,2.58311 0.56513,3.14994 0.67882,0.73253 1.49005,0.96831 2.60882,0.75843 1.40913,-0.26436 1.74063,-0.80461 1.74063,-2.83673 v -1.77089 l 1.05313,0.86297 1.05312,0.86296 v -1.54939 -1.54938 h 0.93611 0.93611 z M 60.781375,206.01311 c -0.70793,0.42239 -1.392465,0.75122 -1.521179,0.73092 -0.263585,-0.0417 -34.171711,-0.32858 -44.874845,-0.37958 l -6.962321,-0.0332 v -90.80284 h 27.38186 27.381855 c -0.03939,29.90557 -0.07879,59.81113 -0.11818,89.7167 l -1.287155,0.76799 z m -55.6400819,0.30377 c -0.096535,-0.008 -9.1534007,-3.59799 -20.1263741,-7.97798 L -34.93595,190.37527 V 115.52838 H -14.809567 5.3168162 Z M 309.31919,197.77725 c -10.61901,4.00838 -20.07081,7.57059 -21.00399,7.91601 l -1.6967,0.62804 v -88.52918 l 12.32496,0.15528 c 6.77873,0.0854 16.25718,0.15529 21.06325,0.15529 h 8.73827 c -0.0395,24.12886 -0.0791,48.25773 -0.1186,72.38659 l -19.30729,7.28797 z m -79.27706,6.89026 c -0.0965,-0.014 -1.11217,-0.44014 -2.25698,-0.9469 -4.39302,-1.94464 -8.69073,-2.76765 -12.05043,-2.30764 -2.50326,0.34274 -4.98884,1.00645 -7.96718,2.12742 -1.34238,0.50523 -2.52743,0.91861 -2.63344,0.91861 -0.25091,-29.79375 -0.11931,-52.50227 -0.0744,-84.60108 l 1.70187,-0.152 c 1.88793,-0.16862 2.67386,-0.56122 3.21386,-1.60543 l 0.36193,-0.69989 h 9.94016 9.94017 z M 89.391317,204.4378 c -0.09654,-0.0117 -0.967738,-0.37377 -1.935999,-0.80469 -3.790993,-1.68717 -8.723046,-2.64478 -12.02523,-2.33484 -2.812438,0.26399 -6.226955,1.04435 -8.781327,2.00693 -1.342427,0.50587 -2.474559,0.91977 -2.515869,0.91977 -0.113919,-31.23703 -0.07509,-55.04376 -0.07509,-88.69659 h 12.754513 12.754521 v 1.98924 1.98925 h -1.872225 -1.872225 v 4.09551 4.09551 h 1.872225 1.872225 z M 357.2947,179.68073 c -3.66838,1.3817 -11.11957,4.19114 -16.55822,6.2432 l -9.88841,3.73101 c 0.0395,-23.88217 0.0791,-47.76434 0.1186,-71.64651 l 13.05013,-2.20214 13.05011,-2.20213 7.83377,7.18987 -0.7585,52.52617 -0.17761,3.84835 -6.66979,2.51218 z m -394.395409,9.77737 c -0.160893,-0.0127 -7.348476,-2.84231 -15.972403,-6.28798 l -15.679858,-6.26487 -0.09996,-60.55777 2.817957,-1.87224 c 1.549872,-1.02973 3.13747,-2.07309 3.528,-2.31858 0.912775,-0.57378 3.013523,-1.06719 4.566855,-1.07119 0.905972,-0.003 15.407551,2.879 20.605374,4.09464 l 0.526569,0.12314 z m -33.689347,-13.60725 c -0.101554,-0.0758 -0.990653,-0.0858 -1.069405,-0.94657 l 0.30075,-56.80578 0.717283,-0.47377 z M 106.41926,124.42148 c -0.70415,1.29898 -0.92761,1.53133 -1.52973,1.59053 -0.65446,0.0643 -0.75122,-0.0311 -1.34672,-1.32847 -0.51623,-1.12466 -0.78966,-1.44656 -1.39933,-1.64738 -0.41675,-0.13726 -2.948082,-0.34319 -5.625163,-0.4576 -2.677089,-0.11441 -4.92797,-0.2686 -5.002,-0.3426 -0.07451,-0.074 -0.07275,-0.29709 0.0035,-0.49571 0.123187,-0.32104 2.07585,-0.36114 17.581033,-0.36114 15.34844,0 17.44251,0.0421 17.44251,0.35104 0,0.27574 -0.32385,0.35104 -1.51058,0.35104 h -1.51058 l -0.14256,0.87761 c -0.0784,0.48269 -0.27121,1.2462 -0.42847,1.69672 -0.24551,0.70336 -0.403,0.82901 -1.11465,0.88931 -0.78038,0.0661 -0.84466,0.0171 -1.10131,-0.83951 -0.54497,-1.81893 -0.48804,-1.80503 -7.37654,-1.80503 h -6.11531 l -0.8246,1.52119 z m -16.969478,1.0532 -0.877606,0.0726 -0.877606,0.0726 v -2.12039 -2.12038 h 0.945218 0.945228 l -0.06758,2.04775 z m 43.802398,-3.39349 c -2.4885,0 -4.5918,-0.0674 -4.6742,-0.14966 -0.43887,-0.43887 0.5168,-0.55242 4.64901,-0.55242 3.88818,0 4.54973,0.051 4.54973,0.35104 0,0.29994 -0.65875,0.35104 -4.52454,0.35104 z m 145.40922,-7.74012 c 0,6.58444 -0.044,7.5061 -0.3584,7.5061 -0.19709,0 -0.40926,-0.13273 -0.47156,-0.29496 -0.0621,-0.16222 -0.0853,-3.50452 -0.0511,-7.42731 0.0572,-6.57814 0.0938,-7.13843 0.47156,-7.21113 0.38315,-0.0737 0.40955,0.40464 0.40955,7.4273 z m -169.5142,5.1658 c -9.567877,0 -17.466328,-0.0702 -17.552128,-0.15602 -0.08579,-0.0858 -0.15602,-0.98097 -0.15602,-1.98925 v -1.83322 h 2.440809 2.4408 l 1.580459,1.7589 1.580453,1.75891 13.530937,-0.0622 c 10.70192,-0.0492 13.53093,-0.001 13.5309,0.23034 -3e-5,0.23144 -3.63531,0.29254 -17.39621,0.29254 z m 93.80619,-1.75519 -11.46735,0.0571 -11.46736,0.057 -1.11164,-0.7283 c -1.09853,-0.71973 -1.11163,-0.74316 -1.11163,-1.98951 v -1.26119 l 14.91927,0.0602 14.91927,0.0602 0.0708,1.22866 c 0.0389,0.67575 0.17787,1.22865 0.30881,1.22865 0.1309,0 0.2044,0.23695 0.1633,0.52657 -0.0619,0.43591 -0.28385,0.56204 -1.28911,0.73262 z m -76.93015,-1.18386 c -0.4556,0.31909 -2.08892,0.36289 -13.16414,0.35489 l -12.644,-0.009 -1.228645,-1.40623 -1.228652,-1.40623 v -7.8285 -7.828492 h 15.445897 15.44593 v 8.073992 8.074 h -1.05313 c -1.04414,0 -1.05314,0.007 -1.05314,0.80584 0,0.56742 -0.15388,0.91362 -0.52012,1.17015 z m 196.98648,-3.84769 v 3.39342 l -2.69132,0.009 c -1.48023,0.005 -4.61328,-0.0237 -6.96233,-0.0638 l -4.27101,-0.0729 v -3.39162 -3.39163 l 6.96233,0.062 6.96233,0.062 v 3.39343 z m 12.46182,2.51971 c -4.20179,0.71016 -6.5683,0.99762 -8.19081,0.99462 l -2.28177,-0.004 v -3.51043 -3.51044 h 8.19095 8.19098 l -1.4e-4,2.51581 -1.2e-4,2.51581 -5.90909,0.99872 z m -40.77919,-2.63685 v 3.2764 l -3.62743,0.0124 c -5.98451,0.0204 -8.19097,-0.10258 -8.19097,-0.45643 0,-0.20409 0.19876,-0.27219 0.58081,-0.19909 0.70082,0.13398 0.83913,-0.15989 1.70979,-3.63276 l 0.60262,-2.40371 4.46258,0.0634 4.4626,0.0634 v 3.2764 z m 12.53339,3.3934 h -5.27204 -5.27206 v -3.3979 -3.3979 l 5.20711,0.063 5.20712,0.063 0.0649,3.33491 z m -85.082,-0.46803 c -6.87986,0 -8.07396,-0.05 -8.07396,-0.33778 0,-0.18577 0.23405,-0.50171 0.52013,-0.70208 0.45324,-0.31741 1.96642,-0.36431 11.76633,-0.36431 9.79992,0 11.31309,0.0468 11.76633,0.36431 0.28607,0.20037 0.52013,0.51631 0.52013,0.70208 0,0.27778 -0.56504,0.33778 -3.18128,0.33778 z m 53.70938,-3.85316 v 3.85276 l -8.3665,-0.009 c -7.4961,-0.008 -8.30054,-0.0452 -7.73263,-0.35343 0.58543,-0.31776 12.84238,-5.92541 15.10451,-6.91043 l 0.99462,-0.4331 v 3.85319 z m -137.14029,2.21497 h -3.97848 -3.97847 v -2.45731 -2.45731 h 3.97847 3.97848 v 2.45731 z m 12.6375,0 h -2.92536 -2.92534 v -3.86148 -3.86148 h 2.92534 2.92536 v 3.86148 z m 15.03629,-0.0374 -3.56893,0.0374 v -3.74446 -3.74446 h 2.80834 2.80833 v 3.61261 3.83893 z m 7.1964,-0.19661 h -0.58507 -0.58507 v -12.60892 c 0,-14.253257 0.13567,-13.298629 -1.85647,-13.062687 -0.92144,0.10913 -1.17442,0.06188 -1.29066,-0.241056 -0.0796,-0.207236 -0.0486,-0.472806 0.0687,-0.590155 0.3828,-0.382792 2.10506,-0.482651 2.86872,-0.166332 1.3768,0.570749 1.3798,0.590274 1.3798,14.25809 z m -205.710594,-0.23401 -2.164761,-0.0221 c -1.661861,-0.017 -3.49676,-0.30636 -7.89844,-1.24571 l -5.733679,-1.22361 -0.07076,-1.2116 -0.07076,-1.21161 h 7.969174 7.969184 v 2.4573 z m 16.615924,-2e-5 h -7.371871 -7.371879 v -2.45731 -2.4573 h 7.371879 7.371871 v 2.4573 z m 10.0631983,0 h -4.0954856 -4.0954877 v -2.45731 -2.4573 h 4.0954877 4.0954856 v 2.4573 z m 14.7437414,0 H 2.8595303 -3.5762369 v -2.45731 -2.4573 h 6.4357672 6.4357594 v 2.4573 z m 25.1579973,0 c -10.557261,0 -12.052436,-0.0436 -12.052436,-0.35105 0,-0.30753 1.495175,-0.35103 12.052436,-0.35103 10.557257,0 12.052432,0.0435 12.052432,0.35103 0,0.30755 -1.495175,0.35105 -12.052432,0.35105 z m 33.465978,0 c -10.557255,0 -12.052438,-0.0436 -12.052438,-0.35105 0,-0.30753 1.495183,-0.35103 12.052438,-0.35103 10.557246,0 12.052429,0.0435 12.052429,0.35103 0,0.30755 -1.495183,0.35105 -12.052429,0.35105 z m 27.732308,-10e-6 H 88.747752 81.84394 v -1.40417 -1.40417 h -1.419716 c -1.410666,0 -1.419246,-0.004 -1.345656,-0.64359 l 0.07403,-0.64358 8.249477,-0.0615 8.249478,-0.0615 v 2.10926 z m 126.784097,-1.40416 h -1.37461 -1.37461 v -3.04239 -3.04237 h 0.81462 c 0.93001,0 0.82888,-0.24141 1.49488,3.56894 z m 2.86753,-3.04238 c 0,2.7973 -0.0347,3.04238 -0.43026,3.04238 -0.37145,0 -0.51603,-0.48793 -1.05748,-3.56895 -0.34496,-1.96291 -0.62586,-3.65098 -0.62286,-3.75126 0.002,-0.10031 1.39974,-0.15291 3.10522,-0.11701 l 3.10087,0.0653 0.074,0.64357 0.074,0.64359 h -2.12179 -2.12179 v 3.04237 z m 7.95686,3.04238 h -2.92535 -2.92535 v -1.98925 -1.98925 h 2.92535 2.92535 v 1.98925 z M -63.442221,110.3979 c -0.425681,0.24746 -0.822736,0.44993 -0.882356,0.44993 -0.05962,0 -0.07987,-2.18525 -0.04511,-4.85611 l 0.06324,-4.8561 5.207119,-0.063 5.207119,-0.063 v 4.35905 c 0,4.06154 -0.02795,4.34721 -0.409548,4.18557 -0.22525,-0.0954 -1.576744,-0.22463 -3.003324,-0.28703 -2.77106,-0.1213 -4.546042,0.20571 -6.137133,1.13065 z m 97.076412,0.21586 h -2.57431 -2.574311 v -1.98924 -1.98925 h 2.574311 2.57431 v 1.98925 z m 3.27631,-1.1e-4 h -0.702084 -0.702083 v -2.91512 -2.91511 l -1.696704,-0.0687 -1.696703,-0.0687 -0.07129,-1.11164 -0.07129,-1.11164 h 2.470115 2.470113 v 4.09551 z m 5.395941,1.1e-4 h -1.644799 -1.644799 v -3.2871 -3.2871 l 1.579681,0.0692 1.57969,0.0692 0.0651,3.21789 z m 24.559694,0 h -2.808334 -2.808333 v -2.10626 -2.10626 h 2.808333 2.808334 v 2.10626 z m 2.574308,0 c -0.444968,0 -0.468058,-0.15602 -0.468058,-3.15939 v -3.15939 H 66.983148 64.99391 v -0.70209 -0.70209 h 3.042367 c 2.52291,0 3.042359,0.0588 3.042359,0.34457 0,0.18952 -0.263276,1.84554 -0.585071,3.68005 -0.321787,1.83451 -0.585062,3.4171 -0.585062,3.5169 0,0.0998 -0.21063,0.18144 -0.468059,0.18144 z m 5.450188,0 h -1.524806 -1.524814 l 0.5536,-3.10088 c 0.304467,-1.7055 0.554148,-3.1272 0.554847,-3.1594 6.99e-4,-0.0321 0.369859,-0.0585 0.82036,-0.0585 h 0.819096 l 0.0018,1.57969 c 9.2e-4,0.86883 0.06877,2.29056 0.150854,3.1594 z m 2.038704,0 c -0.128723,0 -0.234034,-0.31594 -0.234034,-0.70208 0,-0.38616 0.105311,-0.70209 0.234034,-0.70209 0.128715,0 0.234025,0.31593 0.234025,0.70209 0,0.38614 -0.10531,0.70208 -0.234025,0.70208 z m 204.072394,-3.27641 c -0.12871,0 -0.23403,-0.11153 -0.23403,-0.24784 0,-0.1363 0.10532,-0.1827 0.23403,-0.1032 0.12871,0.0795 0.23402,0.19104 0.23402,0.24784 0,0.0568 -0.10531,0.1032 -0.23402,0.1032 z m 2.10625,-0.89438 c 0,-0.56074 0.0168,-0.56715 0.45228,-0.17303 0.2488,0.22511 0.3954,0.55737 0.326,0.73836 -0.25886,0.67455 -0.77828,0.29725 -0.77828,-0.56533 z m -1.98919,-1.5629 -2.92535,0.0435 c -1.60894,0.0239 -3.05301,-0.01 -3.20901,-0.0751 -0.15603,-0.0652 -0.50693,-0.47977 -0.7798,-0.92126 -0.48797,-0.78951 -0.4891,-0.81716 -0.0674,-1.68016 l 0.42874,-0.87745 2.86589,-0.0657 2.86591,-0.0657 0.47415,0.76779 c 0.33108,0.53614 0.45488,1.08555 0.41048,1.82093 z m 4.06691,-0.0105 c -0.12504,0.12503 -1.02099,-0.78289 -1.60629,-1.62773 -0.17836,-0.25744 0.13767,-0.0241 0.70231,0.51853 0.56461,0.54262 0.97138,1.0418 0.90398,1.1092 z m 1.63599,-0.77726 c -0.69436,0.53395 -1.2401,0.56862 -1.04743,0.0665 0.078,-0.2036 0.14205,-0.79914 0.14205,-1.32343 0,-0.95248 4e-4,-0.95289 0.48973,-0.51005 0.92212,0.83451 1.03028,1.29429 0.41565,1.76694 z m -3.01163,-3.77584 c -0.2959,0 -0.2959,-0.478227 0,-0.936113 0.17675,-0.273545 0.22745,-0.208967 0.23045,0.292535 0.002,0.353978 -0.10173,0.643578 -0.23045,0.643578 z M 128.64963,96.338008 H 113.2037 97.757803 V 86.274813 76.211618 h 15.445897 15.44593 v 10.063195 z m 0,-21.998612 H 113.2037 97.757803 v -3.861459 -3.861458 h 15.445897 15.44593 v 3.861458 z"
       sodipodi:nodetypes="cccsssccccsccsaaacccscccccccssscccccccsscccscccccccccccsscccccccccccsscccssssscssssssssssscccsscccccccccccccsscsscssscccccssssssssscccccccccccccccccssccccccccccccsssscccccccccccccccccccccccssscccccccccccccccccccccccsscccccsscccccccccccssccccsscsssssscsccsscccccsscccccsssccasasaasacccccccccscccccccccccsscccccccscssssscssccccccccccscccccccccsssscsccccsscsssssssssccccscccscsccsssscsssssssccccsssscsscccccsssscccccccsssssccssccssccccccccccccsscccsssscccccssscccccsssssssccccccccccccscssscsscccssssccccccccscsccccccscsccccccsccsscccccsssccsscccccssscccccccccccccssccccccccscsccsscsccccccccsssscsssscsssssccccccccccccscsssssccsssssscccccssscccsscccssscccccccccccccssccccsscccccccscccccccccsccsscsccccccccccccccssssssssccssscccccccccccccccccccccccccccccccccsssccsccssccccccccccccccccccccccccccccccccccsssssssssscccccssccccccccccssccsscsccccccccccccccccssscccsscssccccccccccccccccccccccccccccccccccccccccsscccccssssscccsssccccsssssssssssscscsssscccsscssssscsssssscscccccccccccccccccc" />
    <circle
       style="fill:none;stroke:#130f0f;stroke-width:10;stroke-miterlimit:10;stroke-dasharray:none;stroke-opacity:1;paint-order:markers stroke fill;stop-color:#000000"
       id="path3289"
       cx="141.04552"
       cy="155.61844"
       r="273.24701" />
    <path
       inkscape:original-d="M 4.6554099,-262.77203"
       inkscape:path-effect="#path-effect19028"
       d="M 4.6554099,-262.77203"
       id="path19030"
       style="fill:#585858;fill-opacity:1;stroke:none" />
    <path
       inkscape:original-d="M 4.9062177,97.665291"
       inkscape:path-effect="#path-effect19188"
       d="M 4.9062177,97.665291"
       id="path19190" />
    <path
       inkscape:original-d="M 15.27909,323.73045"
       inkscape:path-effect="#path-effect19515"
       d="M 15.27909,323.73045"
       id="path19517" />
    <path
       inkscape:original-d="M 0,0"
       inkscape:path-effect="#path-effect851"
       d="M 0,0"
       id="path853" />
    <path
       inkscape:original-d="M 0,205.87257"
       inkscape:path-effect="#path-effect1227"
       d="M 0,205.87257"
       id="path1229" />
    <path
       inkscape:original-d="M 14.483498,220.87334"
       inkscape:path-effect="#path-effect1352"
       d="M 14.483498,220.87334"
       id="path1354"
       style="fill:#7e7e7e;fill-opacity:1;stroke:none" />
    <path
       inkscape:original-d="M 0,0"
       inkscape:path-effect="#path-effect1616"
       d="M 0,0"
       id="path1618" />
    <path
       d="M -75.713055,344.91502"
       id="path9146"
       inkscape:original-d="M -75.713055,344.91502"
       inkscape:path-effect="#path-effect9144" />
    <path
       inkscape:original-d="M 0,0"
       inkscape:path-effect="#path-effect9925"
       d="M 0,0"
       id="path9927" />
    <path
       inkscape:original-d="M 0,0"
       inkscape:path-effect="#path-effect10139"
       d="M 0,0"
       id="path10141" />
    <path
       inkscape:original-d="M 0,0"
       inkscape:path-effect="#path-effect10147"
       d="M 0,0"
       id="path10149" />
  </g>
</svg>
